<svg xmlns="http://www.w3.org/2000/svg" width="960" height="560" viewBox="0 0 960 560" role="img" aria-labelledby="title desc">
  <title id="title">Poorfish experiment method and search telemetry</title>
  <desc id="desc">Diagram showing the controlled experiment pipeline and search telemetry comparisons for optimized engine versions against baseline.</desc>
  <rect width="960" height="560" fill="#fbfaf7"/>

  <text x="44" y="54" font-family="Arial, sans-serif" font-size="28" font-weight="700" fill="#172033">How the tests were made fairer</text>
  <text x="44" y="82" font-family="Arial, sans-serif" font-size="15" fill="#526070">Same positions, swapped colors, fixed settings, and logged search behavior.</text>

  <rect x="44" y="116" width="408" height="350" rx="10" fill="#ffffff" stroke="#e5e7eb"/>
  <text x="68" y="152" font-family="Arial, sans-serif" font-size="18" font-weight="700" fill="#172033">Experiment pipeline</text>

  <g font-family="Arial, sans-serif">
    <rect x="84" y="190" width="292" height="44" rx="8" fill="#e8f1ff" stroke="#bfdbfe"/>
    <text x="112" y="218" font-size="14" font-weight="700" fill="#1d4ed8">1. Generate balanced FEN starts</text>
    <line x1="230" y1="234" x2="230" y2="254" stroke="#94a3b8" stroke-width="2"/>

    <rect x="84" y="254" width="292" height="44" rx="8" fill="#edf7f4" stroke="#b7ddd4"/>
    <text x="112" y="282" font-size="14" font-weight="700" fill="#0f766e">2. Play each position twice</text>
    <line x1="230" y1="298" x2="230" y2="318" stroke="#94a3b8" stroke-width="2"/>

    <rect x="84" y="318" width="292" height="44" rx="8" fill="#fff7ed" stroke="#fed7aa"/>
    <text x="112" y="346" font-size="14" font-weight="700" fill="#9a3412">3. Keep search settings fixed</text>
    <line x1="230" y1="362" x2="230" y2="382" stroke="#94a3b8" stroke-width="2"/>

    <rect x="84" y="382" width="292" height="44" rx="8" fill="#f8fafc" stroke="#d1d5db"/>
    <text x="112" y="410" font-size="14" font-weight="700" fill="#334155">4. Export games and ply logs</text>
  </g>

  <rect x="492" y="116" width="424" height="350" rx="10" fill="#ffffff" stroke="#e5e7eb"/>
  <text x="516" y="152" font-family="Arial, sans-serif" font-size="18" font-weight="700" fill="#172033">Search telemetry</text>
  <text x="516" y="176" font-family="Arial, sans-serif" font-size="13" fill="#64748b">Average nodes per move from controlled runs.</text>

  <rect x="516" y="206" width="12" height="12" fill="#94a3b8"/>
  <text x="536" y="217" font-family="Arial, sans-serif" font-size="12" fill="#334155">V1 from same run</text>
  <rect x="668" y="206" width="12" height="12" fill="#2563eb"/>
  <text x="688" y="217" font-family="Arial, sans-serif" font-size="12" fill="#334155">Compared version</text>

  <g font-family="Arial, sans-serif" font-size="13" fill="#172033">
    <text x="516" y="260" font-weight="700">V4 TranspositionTable</text>
    <rect x="516" y="276" width="270" height="11" rx="3" fill="#94a3b8"/>
    <rect x="516" y="295" width="193" height="11" rx="3" fill="#2563eb"/>
    <text x="724" y="305" fill="#526070">45k nodes, depth 4.47</text>

    <text x="516" y="328" font-weight="700">V8 Endgame</text>
    <rect x="516" y="344" width="281" height="11" rx="3" fill="#94a3b8"/>
    <rect x="516" y="363" width="148" height="11" rx="3" fill="#2563eb"/>
    <text x="680" y="373" fill="#526070">34k nodes, depth 4.16</text>

    <text x="516" y="396" font-weight="700">V7 Mobility</text>
    <rect x="516" y="412" width="298" height="11" rx="3" fill="#94a3b8"/>
    <rect x="516" y="431" width="160" height="11" rx="3" fill="#2563eb"/>
    <text x="692" y="441" fill="#526070">37k nodes, depth 4.27</text>
  </g>

  <rect x="44" y="494" width="872" height="38" rx="8" fill="#ffffff" stroke="#e5e7eb"/>
  <text x="68" y="518" font-family="Arial, sans-serif" font-size="13" fill="#526070">Logs include selected move, eval, depth, nodes, cutoffs, transposition hits, time, and FEN before each move.</text>
</svg>
