<svg xmlns="http://www.w3.org/2000/svg" width="960" height="610" viewBox="0 0 960 610" role="img" aria-labelledby="title desc">
  <title id="title">Poorfish controlled self-play experiment overview</title>
  <desc id="desc">Dashboard summarizing paired-position self-play results against V1 Baseline, a V4 versus V7 head-to-head run, and experiment caveats.</desc>
  <rect width="960" height="610" fill="#fbfaf7"/>

  <text x="44" y="54" font-family="Arial, sans-serif" font-size="28" font-weight="700" fill="#172033">Controlled self-play results</text>
  <text x="44" y="82" font-family="Arial, sans-serif" font-size="15" fill="#526070">250-game paired-position batches with balanced FEN starts, color swaps, fixed settings, and CSV telemetry.</text>

  <rect x="44" y="116" width="872" height="340" rx="10" fill="#ffffff" stroke="#e5e7eb"/>
  <text x="68" y="152" font-family="Arial, sans-serif" font-size="18" font-weight="700" fill="#172033">Profile results vs V1 Baseline</text>
  <text x="68" y="176" font-family="Arial, sans-serif" font-size="13" fill="#64748b">Wins, draws, and losses over 250 games. Score counts a draw as half a point.</text>

  <rect x="68" y="202" width="12" height="12" fill="#2563eb"/>
  <text x="88" y="213" font-family="Arial, sans-serif" font-size="12" fill="#334155">Wins</text>
  <rect x="142" y="202" width="12" height="12" fill="#94a3b8"/>
  <text x="162" y="213" font-family="Arial, sans-serif" font-size="12" fill="#334155">Draws</text>
  <rect x="220" y="202" width="12" height="12" fill="#ef4444"/>
  <text x="240" y="213" font-family="Arial, sans-serif" font-size="12" fill="#334155">Losses</text>

  <g font-family="Arial, sans-serif" font-size="13" fill="#172033">
    <text x="68" y="260" font-weight="700">V4 TranspositionTable</text>
    <rect x="250" y="240" width="320" height="24" rx="4" fill="#2563eb"/>
    <rect x="570" y="240" width="162" height="24" fill="#94a3b8"/>
    <rect x="732" y="240" width="18" height="24" rx="4" fill="#ef4444"/>
    <text x="774" y="259" font-weight="700">80.2%</text>
    <text x="832" y="259" fill="#526070">160-81-9</text>

    <text x="68" y="316" font-weight="700">V9 OpeningBook*</text>
    <rect x="250" y="296" width="292" height="24" rx="4" fill="#2563eb"/>
    <rect x="542" y="296" width="150" height="24" fill="#94a3b8"/>
    <rect x="692" y="296" width="58" height="24" rx="4" fill="#ef4444"/>
    <text x="774" y="315" font-weight="700">73.4%</text>
    <text x="832" y="315" fill="#526070">146-75-29</text>

    <text x="68" y="372" font-weight="700">V8 Endgame</text>
    <rect x="250" y="352" width="288" height="24" rx="4" fill="#2563eb"/>
    <rect x="538" y="352" width="158" height="24" fill="#94a3b8"/>
    <rect x="696" y="352" width="54" height="24" rx="4" fill="#ef4444"/>
    <text x="774" y="371" font-weight="700">73.4%</text>
    <text x="832" y="371" fill="#526070">144-79-27</text>

    <text x="68" y="428" font-weight="700">V7 Mobility</text>
    <rect x="250" y="408" width="278" height="24" rx="4" fill="#2563eb"/>
    <rect x="528" y="408" width="164" height="24" fill="#94a3b8"/>
    <rect x="692" y="408" width="58" height="24" rx="4" fill="#ef4444"/>
    <text x="774" y="427" font-weight="700">72.0%</text>
    <text x="832" y="427" fill="#526070">139-82-29</text>
  </g>

  <text x="68" y="444" font-family="Arial, sans-serif" font-size="12" fill="#64748b">*Opening book is listed as inactive in this random-FEN test format.</text>

  <rect x="44" y="484" width="274" height="82" rx="10" fill="#ffffff" stroke="#e5e7eb"/>
  <text x="68" y="517" font-family="Arial, sans-serif" font-size="15" font-weight="700" fill="#172033">V4 vs V7 head-to-head</text>
  <text x="68" y="546" font-family="Arial, sans-serif" font-size="15" fill="#526070">97 wins / 96 draws / 57 losses</text>

  <rect x="343" y="484" width="274" height="82" rx="10" fill="#ffffff" stroke="#e5e7eb"/>
  <text x="367" y="517" font-family="Arial, sans-serif" font-size="15" font-weight="700" fill="#172033">V1 mirror diagnostic</text>
  <text x="367" y="546" font-family="Arial, sans-serif" font-size="15" fill="#526070">12 wins / 17 draws / 21 losses</text>

  <rect x="642" y="484" width="274" height="82" rx="10" fill="#ffffff" stroke="#e5e7eb"/>
  <text x="666" y="517" font-family="Arial, sans-serif" font-size="15" font-weight="700" fill="#172033">Opening-book run</text>
  <text x="666" y="546" font-family="Arial, sans-serif" font-size="15" fill="#526070">Book inactive from random FENs</text>
</svg>
